<svg width="512" height="512" viewBox="0 0 512 512" fill="none" xmlns="http://www.w3.org/2000/svg">
  <rect width="512" height="512" rx="120" fill="#020617"/>
  <circle cx="256" cy="256" r="200" fill="url(#grad1)" />
  <defs>
    <linearGradient id="grad1" x1="0%" y1="0%" x2="100%" y2="100%">
      <stop offset="0%" style="stop-color:#6366f1;stop-opacity:1" />
      <stop offset="100%" style="stop-color:#a855f7;stop-opacity:1" />
    </linearGradient>
  </defs>
  <path d="M360 200H152C138.745 200 128 210.745 128 224V328C128 341.255 138.745 352 152 352H360C373.255 352 384 341.255 384 328V224C384 210.745 373.255 200 360 200Z" fill="white" fill-opacity="0.2"/>
  <path d="M384 248H336C322.745 248 312 258.745 312 272C312 285.255 322.745 296 336 296H384V248Z" fill="white"/>
  <circle cx="348" cy="272" r="8" fill="#6366f1"/>
  <path d="M256 120C198.562 120 152 166.562 152 224H184C184 184.235 216.235 152 256 152C295.765 152 328 184.235 328 224H360C360 166.562 313.438 120 256 120Z" fill="white" fill-opacity="0.5"/>
  <path d="M256 96L232 120L256 144V96Z" fill="white"/>
</svg>